<?xml version="1.0" standalone="no"?>
<!DOCTYPE svg PUBLIC "-//W3C//DTD SVG 20010904//EN"
 "http://www.w3.org/TR/2001/REC-SVG-20010904/DTD/svg10.dtd">
<svg version="1.0" xmlns="http://www.w3.org/2000/svg"
 width="320.000000pt" height="320.000000pt" viewBox="0 0 320.000000 320.000000"
 preserveAspectRatio="xMidYMid meet">

<g transform="translate(0.000000,320.000000) scale(0.100000,-0.100000)"
fill="#000000" stroke="none">
<path d="M1548 2650 c-58 -45 -74 -133 -35 -190 34 -51 81 -72 150 -67 64 4
98 24 135 77 29 43 28 55 -3 26 -50 -47 -145 -40 -201 15 -27 26 -34 41 -34
72 0 21 5 47 11 59 15 28 6 32 -23 8z"/>
<path d="M1622 2301 c-27 -61 -28 -77 -1 -91 20 -11 20 -12 2 -25 -15 -12 -16
-17 -5 -34 10 -18 9 -28 -8 -64 -36 -76 -131 -156 -313 -262 -27 -15 -73 -50
-103 -77 -43 -40 -57 -61 -69 -103 -24 -80 -8 -129 61 -195 30 -28 58 -59 63
-67 8 -14 54 -17 404 -19 348 -2 395 -1 390 13 -4 9 12 32 40 61 79 80 98 172
56 260 -23 47 -62 78 -231 187 -114 73 -171 124 -215 193 -28 43 -32 55 -23
73 9 17 8 23 -7 34 -17 13 -17 14 0 32 18 20 23 54 10 67 -5 4 -13 21 -18 37
l-10 29 -23 -49z"/>
<path d="M620 2228 c0 -7 5 -20 10 -28 8 -12 10 -9 10 13 0 15 -4 27 -10 27
-5 0 -10 -6 -10 -12z"/>
<path d="M613 2139 c-5 -29 -37 -53 -55 -42 -21 12 -4 -21 22 -45 22 -21 28
-33 23 -50 -4 -19 -11 -22 -36 -20 -24 2 -33 9 -37 28 -3 14 -14 26 -23 28
-14 3 -17 -4 -17 -35 0 -28 9 -51 33 -83 31 -44 32 -47 35 -167 3 -97 1 -123
-10 -125 -7 0 -17 -2 -23 -3 -5 -2 -18 -3 -27 -4 -26 -2 -22 -31 10 -64 l27
-28 5 -457 5 -457 425 -5 c369 -4 427 -3 442 10 13 12 18 50 25 222 11 244 12
247 113 267 51 10 64 9 114 -10 44 -16 62 -29 82 -61 25 -39 25 -42 22 -226
-1 -103 1 -192 5 -199 10 -16 872 -18 882 -2 4 6 7 145 7 310 -1 334 0 330
-72 382 -49 35 -65 34 -124 -5 -64 -44 -94 -100 -98 -186 -4 -79 -22 -63 -28
26 -7 98 -38 154 -104 182 -45 21 -72 18 -121 -12 -39 -24 -41 -23 -49 12 l-6
30 -449 0 c-387 -1 -451 -3 -461 -16 -8 -8 -14 -48 -15 -97 -4 -228 -5 -238
-16 -232 -6 5 -8 22 -4 47 6 33 3 43 -14 59 -15 15 -21 32 -21 65 0 56 -19 90
-70 127 -49 35 -74 34 -130 -4 -72 -50 -80 -65 -81 -167 0 -49 -4 -93 -7 -99
-15 -21 -40 -21 -61 1 -20 21 -21 32 -21 256 l0 234 36 37 c46 47 41 69 -16
69 l-40 0 6 117 c7 125 10 138 50 193 28 38 29 83 2 88 -12 2 -19 -5 -24 -22
-5 -20 -12 -26 -34 -26 -41 0 -45 26 -14 72 23 32 25 42 16 62 -6 14 -20 27
-31 31 -12 3 -21 11 -21 16 0 23 -21 6 -27 -22z m1774 -1101 c-8 -19 -27 -25
-27 -9 0 6 5 13 10 16 6 3 11 30 12 58 l1 52 6 -50 c4 -27 3 -58 -2 -67z
m-1264 -148 c-3 -12 -8 -19 -11 -16 -5 6 5 36 12 36 2 0 2 -9 -1 -20z m1447
-45 c0 -8 -2 -15 -4 -15 -2 0 -6 7 -10 15 -3 8 -1 15 4 15 6 0 10 -7 10 -15z
m-236 -41 c3 -8 2 -12 -4 -9 -6 3 -10 10 -10 16 0 14 7 11 14 -7z m225 -68
c-9 -8 -10 -5 -5 14 3 14 7 36 8 50 1 14 3 8 5 -14 3 -22 -1 -43 -8 -50z
m-1431 -31 c0 -47 -4 -85 -8 -85 -4 0 -7 38 -6 85 0 47 4 85 7 85 4 0 7 -38 7
-85z m-103 36 c-3 -6 -11 -11 -17 -11 -6 0 -6 6 2 15 14 17 26 13 15 -4z"/>
<path d="M1751 984 c0 -11 3 -14 6 -6 3 7 2 16 -1 19 -3 4 -6 -2 -5 -13z"/>
</g>
</svg>
