<?xml version="1.0" standalone="no"?>
<!DOCTYPE svg PUBLIC "-//W3C//DTD SVG 20010904//EN"
 "http://www.w3.org/TR/2001/REC-SVG-20010904/DTD/svg10.dtd">
<svg version="1.0" xmlns="http://www.w3.org/2000/svg"
 width="320.000000pt" height="320.000000pt" viewBox="0 0 320.000000 320.000000"
 preserveAspectRatio="xMidYMid meet">

<g transform="translate(0.000000,320.000000) scale(0.100000,-0.100000)"
fill="#000000" stroke="none">
<path d="M2283 2243 c9 -2 25 -2 35 0 9 3 1 5 -18 5 -19 0 -27 -2 -17 -5z"/>
<path d="M2276 2176 c3 -8 1 -17 -5 -21 -17 -10 -14 -65 4 -65 11 0 15 12 15
50 0 28 -4 50 -10 50 -5 0 -7 -6 -4 -14z"/>
<path d="M2317 2183 c-4 -3 -7 -26 -7 -50 0 -53 25 -60 34 -9 9 47 -6 80 -27
59z"/>
<path d="M2218 1973 c4 -67 11 -93 23 -93 7 0 10 19 7 50 l-3 50 57 0 c31 0
58 -4 60 -10 2 -5 11 4 20 20 l17 30 -92 0 -92 0 3 -47z"/>
<path d="M2360 1905 c0 -14 4 -25 9 -25 4 0 6 11 3 25 -2 14 -6 25 -8 25 -2 0
-4 -11 -4 -25z"/>
<path d="M2248 1804 c-4 -3 -4 -12 -1 -20 7 -20 99 -19 107 1 4 12 -3 15 -33
15 -22 0 -46 2 -53 5 -8 3 -17 3 -20 -1z"/>
<path d="M1279 1313 l7 -28 331 0 c182 0 333 2 336 5 2 3 8 15 11 28 l7 22
-349 0 -350 0 7 -27z"/>
<path d="M1277 1158 c6 -115 5 -117 -21 -148 -26 -31 -26 -34 -26 -181 l0
-149 36 0 35 0 -4 255 -5 255 107 2 c58 1 205 2 326 3 l220 0 3 23 3 22 -335
0 c-310 0 -335 1 -340 18 -2 9 -2 -36 1 -100z"/>
<path d="M1941 908 l-1 -228 30 0 30 0 0 160 0 160 249 0 248 0 -4 42 c-2 23
-10 53 -17 66 l-13 24 -22 -36 -23 -36 -131 0 -132 0 -22 31 -21 31 -12 -23
c-19 -36 -52 -59 -86 -59 -36 0 -48 11 -62 60 -8 26 -10 -23 -11 -192z"/>
<path d="M882 1048 c3 -7 28 -19 56 -27 55 -15 105 -4 116 25 4 11 -11 14 -85
14 -68 0 -90 -3 -87 -12z"/>
</g>
</svg>
