<?xml version="1.0" standalone="no"?>
<!DOCTYPE svg PUBLIC "-//W3C//DTD SVG 20010904//EN"
 "http://www.w3.org/TR/2001/REC-SVG-20010904/DTD/svg10.dtd">
<svg version="1.0" xmlns="http://www.w3.org/2000/svg"
 width="320.000000pt" height="320.000000pt" viewBox="0 0 320.000000 320.000000"
 preserveAspectRatio="xMidYMid meet">

<g transform="translate(0.000000,320.000000) scale(0.100000,-0.100000)"
fill="#000000" stroke="none">
<path d="M1423 2518 c-28 -35 -45 -109 -41 -172 3 -52 10 -74 34 -108 38 -55
74 -75 162 -90 60 -10 76 -10 102 3 30 14 29 14 -37 14 -95 0 -152 29 -201
103 -34 51 -37 61 -37 126 0 46 6 82 17 104 17 33 17 41 1 20z"/>
<path d="M1842 2410 c0 -14 2 -19 5 -12 2 6 2 18 0 25 -3 6 -5 1 -5 -13z"/>
<path d="M1590 2016 c0 -2 7 -7 16 -10 8 -3 12 -2 9 4 -6 10 -25 14 -25 6z"/>
<path d="M1580 1960 c0 -5 4 -10 9 -10 6 0 13 5 16 10 3 6 -1 10 -9 10 -9 0
-16 -4 -16 -10z"/>
<path d="M1580 1905 c-13 -14 -19 -25 -13 -25 5 0 20 11 33 25 13 14 19 25 13
25 -5 0 -20 -11 -33 -25z"/>
<path d="M1255 1698 c-94 -111 -132 -276 -85 -375 13 -26 32 -58 44 -71 l20
-23 382 2 c210 1 388 5 395 10 8 5 -156 9 -379 9 l-393 0 -27 58 c-23 49 -27
70 -27 152 1 88 3 100 34 160 18 36 45 77 59 93 14 15 23 27 20 27 -4 0 -23
-19 -43 -42z"/>
<path d="M951 1354 c0 -11 3 -14 6 -6 3 7 2 16 -1 19 -3 4 -6 -2 -5 -13z"/>
<path d="M779 1194 c-19 -21 -24 -36 -24 -80 0 -65 22 -92 86 -105 66 -12 163
-11 182 4 14 10 1 12 -75 13 l-92 2 -33 36 c-26 28 -33 44 -33 77 0 22 5 49
10 60 14 26 8 24 -21 -7z"/>
<path d="M2170 1179 c-8 -17 -13 -44 -13 -59 0 -30 45 -96 71 -104 34 -11 142
-14 169 -6 21 6 10 8 -48 9 -62 1 -82 5 -110 24 -40 27 -61 77 -53 130 7 45 1
48 -16 6z"/>
<path d="M1205 1122 c-6 -4 -10 -47 -10 -97 0 -77 2 -90 18 -93 15 -3 17 7 17
97 0 97 -3 109 -25 93z"/>
<path d="M1593 1031 c-44 -27 -45 -62 -3 -56 18 2 38 -4 53 -15 22 -18 25 -29
31 -137 8 -118 13 -133 49 -133 15 0 17 14 17 148 l0 148 -28 27 c-38 37 -79
43 -119 18z"/>
<path d="M655 900 c-3 -6 -8 -52 -11 -104 -4 -87 -3 -94 16 -99 19 -5 20 0 20
104 0 99 -7 128 -25 99z"/>
<path d="M550 657 c-7 -15 -10 -30 -6 -34 9 -9 1567 -12 1896 -3 l255 7 -210
1 c-115 1 -592 3 -1060 6 -467 2 -851 5 -852 5 -1 1 -3 11 -5 24 -4 21 -5 21
-18 -6z"/>
</g>
</svg>
